<svg id="em2Fb4AnUZh1" xmlns="http://www.w3.org/2000/svg" xmlns:xlink="http://www.w3.org/1999/xlink" viewBox="0 0 1009 423" shape-rendering="geometricPrecision" text-rendering="geometricPrecision" project-id="d4415bd564c942e9b763f83e40ca8e7e" export-id="bccc331650c940a1adce20a105aff6d1" cached="false"><g transform="matrix(.1 0 0-.1 0 423)"><path d="M3115,4219c-93-12-710-161-755-183-61-28-121-90-156-162l-29-59l3-412l3-412-23-6c-13-3-59-13-103-24l-80-18-11,256c-11,283-16,304-77,358-51,45-106,58-187,45-77-12-599-132-682-157-77-22-145-70-191-135-61-87-62-100-60-451l3-316-73-13c-125-22-410-97-469-123-69-31-145-104-177-170-46-94-46-117-28-1085C41,166,40,184,99,103C164,13,269,-8,451,29c152,32,559,130,627,153c89,28,169,104,219,206l38,76-3,357-4,358l39,10c21,6,43,11,49,11c17,0,24-77,24-280c0-196,10-281,40-340c51-99,167-147,295-122c136,26,671,154,720,173c78,29,166,113,208,198l32,66-1,452-2,452l67,15c36,8,82,17,101,21c97,18,260,60,297,76c57,24,130,93,159,150c45,90,46,126,30,1019-19,1011-17,977-48,1031-48,86-121,122-223,108ZM2141,2663c0-115,4-336,8-493c7-265,9-288,30-335c60-135,171-178,356-137c50,11,92,18,94,16c3-3,5-183,5-402l1-397-27-51c-31-58-91-117-145-139-21-9-114-34-208-55-93-21-249-57-345-80-240-57-297-50-344,45-22,44-22,41-46,1275-12,562-11,621,4,672c20,69,86,147,154,179c46,23,381,106,435,108l27,1l1-207ZM733,2138c4-161,7-404,7-539c0-253,8-337,40-399c25-50,91-106,137-119c55-16,153-13,234,5c39,9,72,14,74,12s5-141,7-308c3-294,2-307-18-351-27-59-87-125-133-148-20-10-65-26-101-34C354,103,281,91,218,128c-16,9-39,32-51,51-27,44-31,134-48,1146-14,810-14,805,38,893c45,79,132,118,403,181c69,16,134,29,146,30c20,1,21-3,27-291Z" fill="#fff"/><path d="M6211,3619c-211-41-421-183-535-362-20-31-40-57-44-57s-17,21-30,48c-102,214-323,352-566,352-160,0-276-50-400-172-43-43-80-78-81-78s-4,45-7,100-7,103-10,106c-11,10-177,16-261,9l-87-7v-759-759h195h195v393c0,476,8,533,87,653c64,98,204,164,317,149c152-20,279-153,306-322c6-32,10-196,10-365v-308h-44-43l-6,83c-4,45-7,119-7,165v82h-134-133l-6-82c-4-46-7-122-7-170v-88h-110-110v-115-115h115h115v-313c0-341,5-384,58-480c64-119,168-194,304-223c81-17,171-13,276,13l62,15v123v123l-72-19c-132-34-208-20-278,50s-72,86-77,419l-5,292h245c241,0,246,0,252,21c4,12,4,96,0,187l-8,167l84-86c46-48,110-103,141-124l57-37-59-66c-121-131-177-293-167-481c14-271,174-482,436-575c79-28,96-30,216-30c113,0,140,4,210,27c112,37,220,104,288,177c55,59,114,156,103,168-3,3-61,8-128,12l-123,8-45-48c-78-83-176-116-321-108-115,6-191,41-263,119-50,54-96,142-96,184c0,13,69,15,511,15h512l-8,82c-15,178-86,346-194,461-35,37-62,69-60,70s39,29,81,61c78,58,127,110,187,199l33,48l58-78c63-86,128-149,206-203l52-35-68-72c-128-137-201-335-186-502c14-149,76-278,187-390c79-79,166-132,274-168c112-37,275-39,385-5c162,51,309,170,374,305c19,39,38,87,41,105l7,32h-145-145l-6-26c-11-43-91-119-159-150-55-26-72-29-162-29-121,1-169,19-250,96-197,186-144,534,98,645c55,26,73,29,157,29c88,0,101-3,162-33c68-33,126-89,150-144l13-28h143h144l-7,33c-13,64-66,156-132,226-38,42-62,76-57,81c5,4,46,36,92,69c134,99,238,257,283,428c28,108,28,278,0,388-60,231-206,408-426,516-328,160-687,105-933-143-35-35-83-92-107-127l-43-62-40,58c-160,236-403,365-681,362-58-1-126-5-150-10Zm1787-69c378-105,623-495,546-867-38-186-167-368-337-476l-58-38-77,35c-108,48-149,57-266,57s-157-8-272-58l-81-35-81,56c-110,77-177,153-238,270l-51,98-28-58c-65-137-138-223-263-308l-72-49-84,36c-155,67-350,68-500,1-112-50-110-49-161-20-121,71-222,183-299,331l-41,80-3-182-2-183h-135-135v294c0,162-5,330-11,373-21,156-113,293-237,351-50,24-69,27-162,27-97,0-110-2-172-32-130-61-224-193-248-348-7-45-10-200-8-432c2-199,0-364-3-367s-64-7-135-8l-129-3-3,703-2,702h118h119l6-97c4-54,7-119,7-145c0-46,1-48,28-48c23,0,33,10,66,70c55,97,124,163,221,211c206,101,440,59,618-110c75-71,118-143,157-265l32-99l59,122c54,111,68,130,147,209c152,151,287,210,498,219c183,8,304-23,447-114c101-64,194-163,246-261c70-130,62-128,114-26c73,140,153,225,285,303c75,44,194,87,280,101c81,13,215,4,300-20ZM6563,1992c47-23,78-48,108-85c47-58,78-121,79-154v-23h-365-365v23c0,28,34,102,65,143c32,41,111,92,183,115c42,14,79,18,143,16c74-3,96-8,152-35Z" fill="#fff"/><path d="M6253,3315c-185-50-330-208-364-396-47-265,141-537,404-581c193-32,408,85,501,274c94,190,60,407-86,564-119,127-297,181-455,139Zm279-82c132-62,225-185,250-332c40-231-121-459-355-502-274-51-528,216-479,502c29,169,134,293,297,352c80,28,202,20,287-20Z" fill="#fff"/><path d="M7703,3316c-81-20-160-64-227-127-161-150-200-373-103-579c40-85,149-196,232-235c335-157,728,143,675,517-42,294-307,489-577,424Zm218-65c202-64,335-279,300-488-25-147-112-263-248-330-73-36-82-38-173-38s-100,2-172,38c-277,136-334,510-110,719c114,107,260,143,403,99Z" fill="#fff"/><path d="M8627,2563c-9-8-9-551,0-1120l6-443h133h133l3,363c3,351,4,364,27,420c46,115,159,208,274,223c92,13,219-47,276-129c67-98,65-85,69-499l3-378h139h138l7,103c3,56,2,242-3,412-10,345-16,378-90,499-50,83-88,124-156,168-163,105-380,108-521,7-47-34-108-107-141-169-19-35-19-35-22,258l-2,292h-133c-74,0-137-3-140-7Z" fill="#fff"/><path d="M7550,630c0-39,1-40,35-40s35,1,35,40-1,40-35,40-35-1-35-40Z" fill="#fff"/><path d="M8138,632c-24-14-28-23-28-64c0-45-2-48-25-48-20,0-25-5-25-25s5-25,24-25h25l3-156c3-150,4-157,27-175c15-12,39-19,67-19c42,0,44,1,44,30c0,25-4,30-23,30-42,0-47,16-47,157v133h30c25,0,30,4,30,25s-5,25-30,25h-30v65c0,36-3,65-7,65-5,0-20-8-35-18Z" fill="#fff"/><path d="M7245,520c-58-19-85-55-85-113c0-51,34-77,142-112c84-27,93-33,96-56c6-53-55-81-122-58-27,9-45,24-54,42-9,19-21,27-38,27-51,0-36-66,25-107c26-18,48-23,93-23c105,0,168,46,168,122c0,55-38,89-127,113-90,24-123,41-123,65c0,49,111,70,150,28c11-12,20-25,20-30c0-10,57-11,64,0c10,16-24,72-54,87-39,20-116,27-155,15Z" fill="#fff"/><path d="M7787,516c-50-18-64-31-77-71-9-26-8-41,4-68c17-41,46-59,136-82c95-25,124-60,81-99-45-41-129-28-159,24-17,29-44,38-69,22-19-12,15-72,56-99c40-27,131-31,186-9c38,16,75,68,75,104c0,62-40,93-165,128-69,19-85,29-85,55s39,49,83,49c30,0,45-7,67-30c33-35,80-42,80-11c0,30-48,79-88,91-48,13-79,12-125-4Z" fill="#fff"/><path d="M8407,516c-77-28-117-94-117-196c0-127,67-200,184-200c65,0,102,16,140,60c35,42,35,70-1,70-20,0-36-10-56-35-50-63-147-53-181,20-31,65-32,65,129,65h145v34c0,76-43,149-104,177-48,22-87,23-139,5Zm122-62c19-14,51-69,51-89c0-3-49-5-110-5-60,0-110,2-110,5s6,21,14,39c18,43,51,66,96,66c20,0,46-7,59-16Z" fill="#fff"/><path d="M8860,519c-14-6-35-20-47-31l-23-21v26c0,23-4,27-30,27h-30l2-197l3-198h30h30l6,140c3,77,9,148,13,158c10,21,57,47,84,47c10,0,27-6,38-14c17-13,20-31,24-173l5-158l33-3l32-3v131c0,161,10,193,68,211c47,14,78,1,92-37c6-14,10-88,10-165v-139h30h30v169c0,155-2,170-21,194-44,57-143,56-195,0l-23-24-11,21c-22,41-97,60-150,39Z" fill="#fff"/><path d="M9475,523c-47-12-87-38-100-64-23-44-19-59,15-59c17,0,30,5,30,10c0,6,11,22,25,35c19,20,34,25,72,25c64,0,93-21,93-65c0-31-3-35-32-39-173-28-200-40-225-90-20-43-11-95,22-126c39-37,134-40,198-7l48,25l9-24c7-18,17-24,41-24c28,0,31,2,24,23-4,12-11,87-14,167-4,80-11,153-15,163-18,37-129,67-191,50Zm135-243c0-60-41-101-106-107-46-5-53-3-72,22-27,34-28,50-2,73c16,13,103,39,173,51c4,0,7-17,7-39Z" fill="#fff"/><path d="M9854,520c-43-14-75-52-81-99-8-59,28-91,140-125c95-29,114-46,94-86-28-55-143-48-169,10-10,23-20,30-40,30-37,0-43-15-21-58c25-49,72-72,146-72c102,0,161,49,159,132-1,48-36,76-132,104-47,15-91,31-97,36-20,16-15,56,6,68c47,25,141,1,141-36c0-16,55-20,65-4s-24,69-56,85c-38,20-114,27-155,15Z" fill="#fff"/><path d="M7552,323l3-198h30h30l3,198l2,197h-35-35l2-197Z" fill="#fff"/></g></svg>
