<svg id="eTBOq3KJ0Vd1" xmlns="http://www.w3.org/2000/svg" xmlns:xlink="http://www.w3.org/1999/xlink" viewBox="0 0 1024 1024" shape-rendering="geometricPrecision" text-rendering="geometricPrecision" project-id="fb32e76409a84708b9a782ba485f9437" export-id="b52d9659a55b4dfe8435749bb317fb9d" cached="false"><g transform="matrix(.1 0 0-.1 0 1024)"><path d="M1150,5308c-189-420-381-845-426-945l-83-183h138h137l83,190l84,190h531h532l83-190l84-190h133c74,0,134,3,134,7s-190,430-422,945l-422,938h-122-121l-343-762Zm480,422c0-5,54-132,120-282s120-276,120-280c0-5-115-8-255-8s-255,4-255,8c0,5,53,130,118,278s121,277,125,287c7,18,27,15,27-3Zm381-867l38-83h-435c-239,0-433,4-430,8c2,4,20,43,40,85l35,77l357-2l357-3l38-82Z" fill="#fff"/><path d="M4605,5561c-64-23-121-59-164-105-19-19-38-33-43-30-4,3-8,22-8,42c0,83,1,82-126,82h-114v-685-685h130h129l3,478c3,471,3,478,25,518c48,91,167,154,289,154h54v125v125h-62c-35-1-86-9-113-19Z" fill="#fff"/><path d="M7000,5564c-76-20-166-64-220-107-44-36-45-36-52-14-3,12-6,41-7,65l-1,42h-120-120v-685-685h130h129l3,468l3,467l29,53c48,87,144,143,275,162c136,19,252-12,319-84c71-77,72-88,72-608v-458h131h130l-3,508c-3,485-4,510-25,569-54,161-168,264-338,308-76,19-260,19-335-1Z" fill="#fff"/><path d="M3096,5550c-121-31-208-82-302-175-137-137-193-268-202-470-4-101-1-135,17-205c63-253,251-441,496-495c113-26,295-17,393,17c172,61,299,183,374,358c44,105,49,100-107,100h-135l-25-51c-60-117-168-187-304-196-135-10-240,28-322,114-84,87-119,183-119,329c0,239,126,406,336,445c170,32,349-57,415-206l20-45h139h139l-16,53c-39,133-138,268-251,343-31,21-95,51-142,67-115,40-284,47-404,17Z" fill="#fff"/><path d="M5380,5555c-36-8-106-35-157-60-295-145-437-496-337-836c48-162,181-321,331-396c116-59,205-76,356-71c100,3,136,9,201,31c295,103,475,381,452,702-7,114-25,179-75,280-76,153-216,274-382,329-104,35-283,45-389,21Zm240-235c123-23,223-95,278-198c130-243,48-547-173-648-161-74-358-42-477,77-118,118-158,320-97,496c68,201,260,313,469,273Z" fill="#fff"/><path d="M8965,5559c-85-17-175-67-241-133-78-78-104-143-104-256c0-209,113-315,421-394c154-39,224-70,264-118c24-28,27-39,23-84-6-69-40-114-115-150-73-36-173-39-243-7-84,39-150,130-150,208v35h-125-125v-59c0-178,113-330,299-402c79-31,278-38,371-14c188,49,319,180,351,349c14,78,4,148-32,223-57,119-169,188-401,247-217,56-273,87-284,157-4,24,1,47,19,79c56,105,223,133,318,53c38-32,68-95,69-140v-33h125h125v48c-1,170-114,321-278,373-78,24-215,33-287,18Z" fill="#fff"/><path d="M8030,4865v-685h130h130v685v685h-130-130v-685Z" fill="#fff"/></g></svg>
