<svg id="e5ROG0vBq631" xmlns="http://www.w3.org/2000/svg" xmlns:xlink="http://www.w3.org/1999/xlink" viewBox="0 0 964 287" shape-rendering="geometricPrecision" text-rendering="geometricPrecision" project-id="2e20513b7b204e6688937a4360e1fc00" export-id="9e3c60ea66f3433c80f3a26bd1f13b66" cached="false"><g transform="matrix(.1 0 0-.1 0 287)"><path d="M940,2706c0-171,2-166-71-166-63,0-187-29-269-63-290-119-489-353-567-665-26-103-23-313,5-422c85-321,322-572,632-668c307-94,641-23,885,188c184,159,295,380,320,638l6,62h-161-160v-43c0-124-71-278-179-388-124-126-262-183-436-183-176,1-305,54-431,179-83,83-140,174-164,265-72,263,29,538,251,685c81,55,182,92,272,101l67,7l2-309l3-309l158-3l157-3v311v310h-160-160v160v160h160h160v155v155h-160-160v-154Z" fill="#fff"/><path d="M9390,2561c-93-50-127-159-76-246c65-111,215-115,290-7c61,87,30,204-66,251-54,26-103,27-148,2Z" fill="#fff"/><path d="M2440,1610v-940h170h170v940v940h-170-170v-940Z" fill="#fff"/><path d="M8510,1870c0-748,2-771,60-898c88-190,280-301,543-315l67-3v143c0,163,11,146-103,158-113,11-197,75-232,178-14,43-18,100-23,320l-4,267h156h156v145v145h-155-155v270v270h-155-155v-680Z" fill="#fff"/><path d="M3355,2011c-145-41-272-142-338-269-67-128-67-122-74-619l-6-453h161h161l4,428c3,332,7,436,17,467c8,22,37,63,65,91c42,42,61,53,117,69c128,34,252,4,327-81c67-76,70-103,70-596l1-378h162h161l-6,447c-7,480-9,499-62,603-75,148-205,254-361,294-87,22-317,21-399-3Z" fill="#fff"/><path d="M4806,2014c-79-17-210-80-276-132-99-78-184-217-215-352-24-107-22-291,4-393c61-236,256-422,494-471c97-20,257-20,354,0c247,51,445,250,498,499c19,92,19,257-1,352-51,247-250,446-497,497-95,20-268,19-361,0Zm333-307c146-54,231-211,218-402-8-115-37-186-106-256-75-76-142-102-266-102-101,1-152,15-219,64-94,67-137,159-143,309-4,90-2,114,17,169c49,145,138,217,300,245c44,7,144-6,199-27Z" fill="#fff"/><path d="M7448,2010c-237-59-410-231-473-471-23-86-23-298-1-393c9-37,37-109,63-158c111-216,320-338,577-338c166,0,270,31,364,107l42,34v-60-61h161h161l-4,407c-5,455-6,460-77,600-69,135-151,218-284,284-134,68-364,89-529,49Zm348-301c113-42,193-153,215-296c22-146-26-302-117-382-68-60-140-84-249-84-117,0-186,25-256,94-152,148-155,443-6,593c55,54,91,74,171,92c74,16,170,10,242-17Z" fill="#fff"/><path d="M5666,1943c14-38,127-335,250-661s224-597,224-603c0-5,70-9,173-9h172l240,637c132,350,245,651,252,670l12,33-175-2-176-3-161-449c-89-246-163-444-164-440-2,5-75,207-162,449l-159,440-176,3-175,2l25-67Z" fill="#fff"/><path d="M9300,1340v-670h160h160v670v670h-160-160v-670Z" fill="#fff"/><path d="M6716,483c-5-17-76-362-76-369c0-2,14-4,30-4c22,0,33,6,40,23c11,25,70,321,70,349c0,25-56,26-64,1Z" fill="#fff"/><path d="M7437,493c-16-4-37-40-37-64c0-16,32-10,46,9c12,16,14,16,42,0c56-33,112-13,112,40c0,25-27,30-36,7-8-19-24-19-60,0-30,15-36,16-67,8Z" fill="#fff"/><path d="M6160,461c-44-23-63-73-49-124c7-27,22-43,59-66c28-17,50-38,50-47c0-51-54-75-114-50-32,13-37,13-45-1-12-23-2-51,21-59c36-11,116-5,147,11c54,27,76,83,57,142-4,12-29,38-56,57-56,40-63,67-25,92c20,13,30,14,61,4c38-13,53-5,54,28c0,33-106,42-160,13Z" fill="#fff"/><path d="M9190,454c-6-14-10-27-10-30c0-2,23-4,50-4c28,0,50-4,50-9c0-8-45-235-55-279-5-22-3-23,32-20l37,3l31,150l30,150l51,3c43,2,53,7,57,24c4,12,4,25,1,30-3,4-64,8-135,8h-129l-10-26Z" fill="#fff"/><path d="M9535,471c-17-7-25-35-53-173-17-90-32-169-32-176s14-12,34-12h33l31,158c18,86,33,168,34,182c3,27-14,34-47,21Z" fill="#fff"/><path d="M6463,380c-76-17-122-82-123-173c0-77,39-105,135-98c87,7,151,117,124,215-14,50-66,72-136,56Zm71-82c14-41-20-119-57-132-69-24-92,67-36,139c29,36,79,32,93-7Z" fill="#fff"/><path d="M7202,379c-42-9-70-34-93-84-32-69-20-167,21-180c22-7,32-41,16-54-6-5-20-11-31-13-38-7-23-33,21-36c51-4,74,16,74,63c0,27,5,34,25,39c15,4,30,18,35,32c16,40,12,46-20,29-62-32-96-11-87,57c8,60,36,93,78,92c19,0,41-2,49-5c10-3,16,5,18,23c3,23-1,28-25,33-15,4-32,8-38,9-5,1-25-1-43-5Z" fill="#fff"/><path d="M7453,380c-76-17-122-82-123-173c0-77,39-105,135-98c87,7,151,115,125,211-14,54-66,76-137,60Zm71-82c14-41-20-119-57-132-69-24-92,67-36,139c29,36,79,32,93-7Z" fill="#fff"/><path d="M7735,375c-68-24-105-87-105-178c0-46,35-86,77-88c85-5,133,10,133,40c0,15-9,17-67,17l-68-1-3,31-3,31l62,6c79,7,113,30,117,80c3,28-2,39-20,50-36,23-80,28-123,12Zm75-51c19-22-6-44-59-51-48-7-53,6-16,42c28,29,57,32,75,9Z" fill="#fff"/><path d="M8010,379c-46-10-72-43-68-88c2-29,11-41,46-64c23-16,42-35,42-43c0-23-44-35-81-22-30,10-48,1-49-23c0-18,35-31,81-31c59,0,98,23,112,66c13,39-3,70-53,101-36,23-39,28-29,46c9,18,17,20,54,15c34-6,44-4,49,9c3,9,4,20,1,25-7,12-66,17-105,9Z" fill="#fff"/><path d="M8405,380c-75-16-114-67-122-159-5-54-3-62,20-85c26-26,50-31,117-26c46,3,70,16,70,39c0,15-9,17-67,17l-68-1-3,31-3,31l62,6c78,7,113,30,117,79c2,22-3,39-12,47-22,18-76,28-111,21Zm55-56c19-22-6-44-59-51-48-7-53,6-16,42c28,29,57,32,75,9Z" fill="#fff"/><path d="M8703,370c-37-16-43-17-43-4c0,11-8,14-27,12-27-3-29-7-55-128-15-69-27-128-27-132-1-5,13-8,29-8c35,0,43,14,60,102c17,85,88,152,105,100c3-11-1-51-10-91-22-106-21-113,17-109c31,3,32,5,49,82c13,65,22,85,48,108c58,52,70,31,47-85-22-110-22-109,17-105c31,3,32,5,49,78c30,139,22,184-37,196-22,4-40-1-68-20-38-26-39-26-55-7-26,29-53,32-99,11Z" transform="translate(.000001 0)" fill="#fff"/><path d="M6836,371c-11-16-36-152-36-190c0-20,6-45,13-55c19-25,82-24,118,3l29,22v-21c0-17,5-21,27-18c26,3,28,7,50,113c31,152,30,157-9,153-31-3-32-5-49-82-13-65-22-85-48-108-34-30-61-28-61,6c0,11,6,53,13,91c8,39,12,76,10,83-5,14-49,17-57,3Z" fill="#fff"/></g></svg>
