<svg id="eqCbSOEkGvy1" xmlns="http://www.w3.org/2000/svg" xmlns:xlink="http://www.w3.org/1999/xlink" viewBox="0 0 1800 744" shape-rendering="geometricPrecision" text-rendering="geometricPrecision" project-id="0931449eed43460bbb34e1173438709b" export-id="d8c08a0e6e35470dbad76eb891fd58a9" cached="false"><g transform="matrix(.1 0 0-.1 0 744)"><path d="M15435,5718c-3-13-5-158-3-323l3-300l433-3l432-2v152c0,84-3,231-7,326l-6,172h-423-424l-5-22Z" fill="#fff"/><path d="M3145,5719c-695-35-1090-202-1306-553-177-288-183-621-17-931c52-96,197-248,328-342c173-124,634-386,1105-628c294-151,356-198,414-312c43-86,44-225,0-317-27-57-111-140-184-181-79-45-218-84-319-90-44-3-94-8-111-11-44-7-808-5-1091,2l-242,7-6-94c-3-52-7-198-10-326-4-230-4-231,18-237c48-11,1131-25,1361-17c612,22,1008,148,1242,395c155,163,216,303,243,556c37,339-76,633-337,879-98,94-197,163-358,253-130,72-544,287-805,418-113,57-233,121-266,142-79,49-149,124-182,196-24,50-27,69-27,157c0,120,14,153,99,233c65,62,149,103,274,135c85,21,102,22,633,22h546l7,74c3,41,6,184,6,318v243h-32c-18,0-67,3-108,5-143,9-716,12-875,4Z" fill="#fff"/><path d="M4846,4958c-8-917-6-1818,4-2048c12-261,49-429,131-594c187-376,555-563,1218-616c125-10,669-15,678-6c4,4,5,638,0,642-1,1-123,4-272,7-288,5-372,16-517,63-184,60-308,192-354,376-18,75-39,668-30,873c3,72,6,275,6,453v322h485h485v325v325h-485-485v325v325h-428-429l-7-772Z" fill="#fff"/><path d="M13096,5599c-10-214-7-2677,4-2792c21-209,58-353,127-492c167-334,510-533,1023-595c52-6,110-13,128-15c124-18,600-29,710-17l42,4v324v324h-217c-120,1-236,3-258,6-231,27-317,48-416,100-178,94-258,232-279,481-11,134-13,1009-3,1306l6,197h479h478v325v325h-480-480v325v325h-428-429l-7-131Z" fill="#fff"/><path d="M7520,4751v-331h593c745,0,885-13,1059-101c158-80,257-246,258-431v-48h-487c-543-1-661-4-843-26-323-38-539-134-735-329-167-165-257-349-285-579-56-474,206-896,670-1077c126-50,295-94,417-109c48-6,102-13,118-16c70-11,972-24,1475-22l545,3v1115c0,1195-1,1229-51,1417-52,198-135,347-263,474-185,184-429,293-761,339-241,33-431,42-1062,47l-648,6v-332ZM9450,2764v-425l-562,3c-542,3-565,4-625,25-126,42-206,113-260,229-25,53-28,70-28,169s3,116,27,168c50,106,157,197,268,227c88,24,161,27,668,29l512,1v-426Z" fill="#fff"/><path d="M12065,5060c-332-28-583-85-769-174-303-147-487-391-561-745-29-141-35-359-35-1410c0-956,1-1053,16-1047c9,3,204,6,435,6h419l-5,1043c-4,1049-2,1150,31,1266c52,183,172,300,369,361c132,40,245,52,568,57l307,6v323v324l-342-1c-189-1-383-5-433-9Z" fill="#fff"/><path d="M15430,3215v-1525h435h435v1525v1525h-435-435v-1525Z" fill="#fff"/></g></svg>
